<svg width="376" height="56" viewBox="0 0 376 56" fill="none" xmlns="http://www.w3.org/2000/svg">
<path d="M351.294 25.03C350.746 25.2923 350.201 25.464 349.661 25.5452C349.13 25.6217 348.603 25.6077 348.08 25.5031C347.562 25.3842 347.05 25.1796 346.545 24.8893L347.026 23.1515C347.82 23.5997 348.495 23.8501 349.053 23.9028C349.61 23.9555 350.187 23.8393 350.783 23.5539C351.149 23.3791 351.453 23.1626 351.697 22.9044C351.94 22.6463 352.099 22.3748 352.176 22.0899C352.253 21.805 352.229 21.5326 352.105 21.2728C352.022 21.0996 351.915 20.9498 351.783 20.8234C351.652 20.6971 351.494 20.6012 351.309 20.536C351.134 20.4661 350.924 20.4242 350.681 20.4104C350.448 20.392 350.188 20.4041 349.901 20.4468C349.609 20.4798 349.286 20.5457 348.931 20.6445C348.361 20.7871 347.842 20.8639 347.374 20.8747C346.906 20.8856 346.48 20.8232 346.096 20.6877C345.712 20.5521 345.379 20.3506 345.098 20.0833C344.812 19.8063 344.57 19.4609 344.372 19.0471C344.178 18.643 344.086 18.2262 344.093 17.797C344.11 17.3631 344.213 16.9475 344.401 16.55C344.595 16.1383 344.871 15.7639 345.23 15.4267C345.584 15.0799 346.007 14.7891 346.497 14.5544C347.017 14.3059 347.526 14.1455 348.023 14.0731C348.521 14.0008 349.002 14.0188 349.468 14.1271C349.929 14.2259 350.362 14.4148 350.767 14.6939L350.188 16.3011C349.844 16.0756 349.501 15.9145 349.159 15.8178C348.812 15.7115 348.47 15.6745 348.13 15.7067C347.786 15.7293 347.451 15.8188 347.124 15.9753C346.748 16.1547 346.449 16.3689 346.225 16.6179C346.001 16.8668 345.858 17.1362 345.796 17.4262C345.738 17.7019 345.776 17.9793 345.91 18.2583C346.007 18.4604 346.135 18.6296 346.295 18.766C346.45 18.8928 346.637 18.9867 346.855 19.0478C347.078 19.0947 347.35 19.1066 347.67 19.0836C347.986 19.051 348.349 18.9835 348.762 18.881C349.346 18.7433 349.889 18.667 350.39 18.652C350.887 18.6273 351.337 18.6662 351.741 18.7687C352.144 18.8713 352.49 19.0372 352.777 19.2664C353.073 19.4911 353.305 19.7767 353.47 20.1231C353.779 20.7678 353.896 21.3973 353.823 22.0115C353.751 22.6257 353.502 23.1938 353.078 23.7159C352.649 24.2284 352.054 24.6665 351.294 25.03Z" fill="black"/>
<path d="M337.94 30.8875L333.446 20.6287L337.813 18.7155C338.399 18.4587 339.001 18.3699 339.618 18.449C340.24 18.514 340.807 18.7315 341.318 19.1014C341.826 19.4615 342.214 19.9493 342.484 20.5648C342.728 21.1218 342.808 21.7038 342.724 22.3109C342.641 22.9181 342.419 23.4752 342.059 23.9823C341.695 24.4797 341.215 24.8589 340.619 25.1199L337.834 26.3398L339.522 30.1941L337.94 30.8875ZM344.036 28.2168L339.399 24.7284L340.865 23.6494L345.963 27.3904L344.036 28.2168ZM337.166 24.8156L340.097 23.5316C340.381 23.4075 340.605 23.2278 340.77 22.9926C340.93 22.7476 341.02 22.4751 341.04 22.1752C341.056 21.8656 340.998 21.5593 340.865 21.2564C340.715 20.9144 340.502 20.6528 340.224 20.4716C339.952 20.2762 339.638 20.1695 339.28 20.1513C338.933 20.1289 338.578 20.1969 338.217 20.3552L335.696 21.4595L337.166 24.8156Z" fill="black"/>
<path d="M328.838 34.5935L324.666 24.1996L331.214 21.5711L331.834 23.1153L326.89 25.1001L329.822 32.4055L334.767 30.4208L335.386 31.965L328.838 34.5935ZM327.736 29.7429L327.116 28.1987L332.12 26.1901L332.74 27.7344L327.736 29.7429Z" fill="black"/>
<path d="M322.78 37.0322C322.209 37.2411 321.651 37.3602 321.105 37.3896C320.569 37.4153 320.046 37.3512 319.536 37.1973C319.031 37.0297 318.541 36.7773 318.066 36.4402L318.71 34.7562C319.458 35.2777 320.106 35.5913 320.656 35.6968C321.206 35.8023 321.791 35.7415 322.412 35.5142C322.793 35.3749 323.117 35.1884 323.383 34.9545C323.65 34.7207 323.835 34.4656 323.938 34.1893C324.041 33.9129 324.044 33.6395 323.945 33.3691C323.879 33.1888 323.786 33.0295 323.667 32.8912C323.549 32.7529 323.4 32.6425 323.223 32.5599C323.055 32.4737 322.85 32.4121 322.61 32.3752C322.379 32.3347 322.119 32.322 321.829 32.3372C321.536 32.3423 321.208 32.3771 320.845 32.4417C320.264 32.5294 319.74 32.5564 319.273 32.5228C318.807 32.4891 318.389 32.3865 318.019 32.215C317.65 32.0435 317.338 31.8113 317.083 31.5183C316.824 31.2154 316.616 30.8485 316.459 30.4178C316.305 29.9971 316.252 29.5734 316.3 29.1468C316.359 28.7166 316.5 28.3126 316.726 27.9348C316.957 27.5434 317.268 27.197 317.657 26.8954C318.043 26.5839 318.491 26.3347 319.002 26.1477C319.543 25.9498 320.065 25.8385 320.567 25.8138C321.069 25.7891 321.546 25.8528 322 26.005C322.449 26.1472 322.862 26.3764 323.239 26.6928L322.51 28.2376C322.189 27.9804 321.862 27.7874 321.531 27.6586C321.197 27.5199 320.859 27.4504 320.518 27.4501C320.173 27.4399 319.831 27.4971 319.49 27.6217C319.1 27.7647 318.781 27.9494 318.535 28.1759C318.288 28.4024 318.12 28.657 318.03 28.9397C317.947 29.2087 317.959 29.4884 318.065 29.7789C318.142 29.9893 318.253 30.17 318.399 30.3209C318.542 30.4619 318.719 30.5732 318.931 30.6548C319.148 30.7227 319.418 30.7604 319.739 30.768C320.056 30.7655 320.424 30.7329 320.844 30.6701C321.439 30.5887 321.987 30.5643 322.487 30.597C322.984 30.6197 323.428 30.7013 323.821 30.8418C324.213 30.9823 324.541 31.1803 324.805 31.4358C325.079 31.6877 325.281 31.9939 325.413 32.3546C325.659 33.0257 325.716 33.6635 325.585 34.268C325.454 34.8724 325.153 35.4144 324.681 35.8938C324.205 36.3631 323.572 36.7426 322.78 37.0322Z" fill="black"/>
<path d="M311.857 40.6761L311.347 39.1595L313.061 38.5833L310.512 31.0005L308.798 31.5767L308.288 30.0601L313.353 28.357L313.863 29.8736L312.15 30.4498L314.699 38.0326L316.413 37.4564L316.923 38.973L311.857 40.6761Z" fill="black"/>
<path d="M300.433 44.1949L301.313 32.2171L302.996 31.7036L310.381 41.1607L308.621 41.6975L304.202 35.9861C304.15 35.924 304.036 35.7693 303.86 35.5218C303.694 35.2712 303.504 34.9947 303.289 34.6922C303.074 34.3898 302.879 34.1148 302.703 33.8674C302.524 33.6097 302.407 33.4447 302.351 33.3724L302.698 33.2498C302.69 33.4419 302.681 33.6846 302.67 33.9779C302.669 34.268 302.663 34.5766 302.651 34.9036C302.649 35.2275 302.643 35.5361 302.632 35.8293C302.618 36.1124 302.607 36.35 302.599 36.5421L302.117 43.6814L300.433 44.1949ZM301.457 40.9718L301.584 39.1935L306.451 37.7091L307.64 39.086L301.457 40.9718Z" fill="black"/>
<path d="M290.818 46.7788L287.927 35.9585L292.533 34.7275C293.151 34.5622 293.759 34.5653 294.357 34.7368C294.963 34.8952 295.49 35.1959 295.94 35.6388C296.387 36.0714 296.697 36.6123 296.87 37.2616C297.027 37.8489 297.019 38.4364 296.845 39.024C296.67 39.6116 296.367 40.1288 295.934 40.5756C295.499 41.0122 294.967 41.3144 294.338 41.4824L291.401 42.2673L292.488 46.3326L290.818 46.7788ZM297.249 45.0603L293.192 40.911L294.804 40.066L299.278 44.5346L297.249 45.0603ZM290.972 40.6597L294.063 39.8335C294.362 39.7537 294.611 39.6099 294.809 39.4023C295.005 39.1844 295.135 38.9287 295.2 38.6353C295.263 38.3316 295.251 38.02 295.166 37.7005C295.07 37.3398 294.898 37.0489 294.651 36.8278C294.412 36.5937 294.117 36.4406 293.767 36.3686C293.426 36.2939 293.066 36.3075 292.684 36.4094L290.026 37.1199L290.972 40.6597Z" fill="black"/>
<path d="M279.163 49.4893L276.68 38.5681L280.954 37.5961C281.735 37.4187 282.466 37.3891 283.149 37.5072C283.843 37.623 284.469 37.8745 285.027 38.2616C285.586 38.6488 286.06 39.148 286.451 39.7593C286.841 40.3706 287.129 41.0819 287.313 41.8932C287.498 42.7045 287.547 43.4754 287.462 44.2058C287.374 44.9259 287.162 45.5812 286.826 46.1718C286.498 46.7495 286.046 47.2406 285.471 47.6449C284.895 48.0492 284.218 48.34 283.438 48.5174L279.163 49.4893ZM280.518 47.6552L280.432 47.4943L282.991 46.9125C283.542 46.7872 284.011 46.5876 284.397 46.3138C284.794 46.0377 285.101 45.7053 285.319 45.3166C285.545 44.9152 285.681 44.4575 285.729 43.9436C285.776 43.4297 285.732 42.8763 285.597 42.2834C285.462 41.6905 285.264 41.1778 285.001 40.7452C284.737 40.3022 284.416 39.9486 284.038 39.6844C283.661 39.4201 283.239 39.2481 282.772 39.1682C282.306 39.0883 281.797 39.1111 281.245 39.2364L278.64 39.8288L278.702 39.6671L280.518 47.6552Z" fill="black"/>
<path d="M266.699 51.848L264.674 40.8327L266.2 40.552L274.593 48.3301L274.368 48.518C274.277 48.2634 274.189 47.987 274.101 47.6885C274.012 47.3796 273.92 47.0549 273.824 46.7145C273.738 46.3617 273.648 45.9931 273.556 45.6088C273.472 45.2121 273.385 44.7996 273.296 44.3715C273.206 43.9433 273.119 43.4984 273.034 43.0368L272.369 39.4175L274.068 39.1049L276.094 50.1202L274.536 50.4067L266.314 42.9388L266.446 42.6867C266.616 43.3169 266.759 43.8547 266.873 44.3001C266.996 44.7329 267.097 45.1048 267.176 45.4157C267.263 45.7141 267.331 45.962 267.378 46.1594C267.423 46.3463 267.457 46.5027 267.48 46.6286C267.514 46.7526 267.539 46.8618 267.557 46.9562L268.399 51.5354L266.699 51.848Z" fill="black"/>
<path d="M259.305 53.0466C258.45 53.1662 257.658 53.0884 256.93 52.8132C256.201 52.5274 255.595 52.0844 255.112 51.4841C254.639 50.8717 254.344 50.1482 254.227 49.3137L253.271 42.4682L254.982 42.229L255.919 48.9318C255.994 49.4706 256.189 49.9388 256.503 50.3365C256.816 50.7236 257.196 51.0151 257.643 51.2111C258.101 51.4055 258.578 51.4681 259.075 51.3986C259.603 51.3248 260.061 51.1316 260.448 50.819C260.845 50.5049 261.142 50.1188 261.336 49.6608C261.529 49.1923 261.588 48.6886 261.512 48.1499L260.575 41.447L262.208 41.2189L263.165 48.0643C263.281 48.8989 263.191 49.6762 262.893 50.3964C262.604 51.1045 262.148 51.696 261.525 52.1708C260.901 52.6351 260.161 52.927 259.305 53.0466Z" fill="black"/>
<path d="M245.413 54.5739L244.297 43.4297L246.016 43.2575L247.132 54.4018L245.413 54.5739ZM245.702 49.7531L245.536 48.0974L251.283 47.5219L251.449 49.1776L245.702 49.7531ZM245.227 45.0089L245.061 43.3532L251.525 42.7059L251.69 44.3616L245.227 45.0089Z" fill="black"/>
<path d="M229.83 55.3975L229.384 44.2064L234.148 44.0166C234.787 43.9911 235.38 44.1276 235.926 44.4261C236.481 44.7135 236.93 45.1227 237.272 45.6535C237.613 46.1737 237.796 46.7695 237.823 47.4409C237.847 48.0485 237.71 48.6197 237.411 49.1547C237.112 49.6897 236.703 50.1277 236.182 50.4687C235.662 50.799 235.076 50.9771 234.426 51.003L231.389 51.124L231.556 55.3287L229.83 55.3975ZM236.48 55.1325L233.433 50.1939L235.192 49.7235L238.575 55.065L236.48 55.1325ZM231.322 49.4614L234.52 49.334C234.829 49.3216 235.103 49.236 235.342 49.077C235.581 48.9074 235.764 48.6866 235.892 48.4146C236.02 48.132 236.077 47.8254 236.064 47.495C236.049 47.122 235.945 46.8005 235.753 46.5306C235.571 46.2497 235.317 46.0356 234.991 45.8885C234.676 45.7409 234.321 45.675 233.926 45.6907L231.177 45.8003L231.322 49.4614Z" fill="black"/>
<path d="M222.004 55.5472C221.215 55.538 220.486 55.3855 219.817 55.0897C219.159 54.7941 218.583 54.3873 218.087 53.8695C217.603 53.3412 217.226 52.7288 216.957 52.0323C216.698 51.3252 216.574 50.5557 216.583 49.7238C216.593 48.8918 216.735 48.1308 217.01 47.4406C217.295 46.7399 217.687 46.1364 218.183 45.6301C218.69 45.1133 219.276 44.7147 219.941 44.4345C220.616 44.1543 221.349 44.0188 222.138 44.028C222.927 44.0371 223.651 44.1896 224.309 44.4852C224.977 44.781 225.554 45.1931 226.039 45.7214C226.534 46.2499 226.911 46.8676 227.169 47.5747C227.438 48.2712 227.568 49.0301 227.559 49.8514C227.549 50.6726 227.402 51.4337 227.116 52.1344C226.841 52.8246 226.45 53.4281 225.943 53.9449C225.446 54.4618 224.86 54.8603 224.185 55.1405C223.52 55.4208 222.793 55.5564 222.004 55.5472ZM222.024 53.8673C222.568 53.8736 223.065 53.7781 223.515 53.5806C223.976 53.3833 224.374 53.1052 224.709 52.7464C225.044 52.377 225.305 51.948 225.492 51.4595C225.69 50.9604 225.792 50.4175 225.799 49.8309C225.806 49.2443 225.716 48.7045 225.53 48.2117C225.354 47.7083 225.103 47.2733 224.777 46.9068C224.45 46.5297 224.059 46.2371 223.603 46.0291C223.157 45.8213 222.662 45.7142 222.118 45.7078C221.575 45.7015 221.072 45.797 220.611 45.9943C220.161 46.1918 219.763 46.4699 219.417 46.8285C219.082 47.1873 218.821 47.6163 218.634 48.1155C218.447 48.604 218.35 49.1469 218.343 49.7442C218.336 50.3309 218.421 50.8759 218.596 51.3793C218.772 51.8827 219.023 52.3176 219.349 52.6841C219.686 53.0507 220.078 53.338 220.523 53.5458C220.98 53.7538 221.48 53.861 222.024 53.8673Z" fill="black"/>
<path d="M207.85 54.8245L208.543 43.6459L210.268 43.7529L209.575 54.9314L207.85 54.8245ZM208.912 50.1131L209.015 48.4523L214.78 48.8099L214.677 50.4707L208.912 50.1131ZM209.207 45.3543L209.31 43.6935L215.793 44.0956L215.69 45.7564L209.207 45.3543Z" fill="black"/>
<path d="M196.885 53.7998C196.282 53.7193 195.732 53.5651 195.235 53.3373C194.749 53.1109 194.316 52.8108 193.935 52.4371C193.567 52.0543 193.25 51.6031 192.986 51.0835L194.34 49.8923C194.759 50.7016 195.187 51.2808 195.625 51.6298C196.063 51.9789 196.609 52.1972 197.265 52.2848C197.666 52.3385 198.04 52.3238 198.384 52.2407C198.729 52.1577 199.011 52.0178 199.231 51.8212C199.451 51.6246 199.58 51.3836 199.619 51.0982C199.644 50.9078 199.636 50.7239 199.595 50.5462C199.555 50.3686 199.475 50.2019 199.356 50.0461C199.247 49.8917 199.095 49.7422 198.899 49.5976C198.714 49.4545 198.489 49.3222 198.226 49.2009C197.963 49.069 197.657 48.9474 197.306 48.8359C196.75 48.6433 196.274 48.4236 195.877 48.1767C195.479 47.9299 195.157 47.6447 194.909 47.3211C194.662 46.9975 194.494 46.6468 194.404 46.2689C194.316 45.8805 194.303 45.459 194.363 45.0044C194.423 44.5603 194.573 44.1607 194.814 43.8055C195.066 43.4517 195.379 43.16 195.754 42.9303C196.141 42.6915 196.578 42.5292 197.062 42.4433C197.549 42.3469 198.062 42.3347 198.601 42.4068C199.172 42.4831 199.685 42.627 200.141 42.8386C200.597 43.0502 200.99 43.3288 201.321 43.6742C201.653 44.0092 201.912 44.4043 202.099 44.8597L200.735 45.8881C200.57 45.5109 200.371 45.1884 200.137 44.9205C199.906 44.642 199.639 44.4234 199.337 44.2647C199.037 44.0954 198.707 43.9868 198.348 43.9387C197.935 43.8836 197.567 43.899 197.244 43.9849C196.92 44.0708 196.653 44.2181 196.442 44.4266C196.243 44.6261 196.124 44.8791 196.083 45.1857C196.053 45.4077 196.068 45.6195 196.127 45.8211C196.187 46.0122 196.292 46.193 196.442 46.3636C196.603 46.5251 196.824 46.6838 197.105 46.8396C197.386 46.9849 197.728 47.1274 198.129 47.2671C198.693 47.4717 199.19 47.7048 199.617 47.9664C200.047 48.2175 200.402 48.4964 200.684 48.8031C200.966 49.1098 201.164 49.4376 201.279 49.7865C201.404 50.1369 201.442 50.5024 201.391 50.883C201.296 51.5914 201.05 52.1827 200.653 52.6569C200.256 53.1312 199.737 53.4708 199.097 53.6757C198.457 53.8701 197.72 53.9114 196.885 53.7998Z" fill="black"/>
<path d="M181.011 50.8705L183.132 39.8732L184.656 40.1671L189.643 50.466L189.365 50.559C189.373 50.289 189.391 49.9992 189.418 49.6894C189.448 49.3691 189.48 49.0331 189.515 48.6814C189.563 48.3213 189.614 47.9454 189.667 47.5539C189.734 47.1539 189.803 46.7381 189.875 46.3067C189.948 45.8753 190.028 45.4291 190.117 44.9683L190.814 41.3549L192.511 41.6821L190.39 52.6794L188.834 52.3795L183.893 42.4316L184.108 42.245C184.037 42.894 183.974 43.4467 183.919 43.9031C183.876 44.3511 183.834 44.7342 183.795 45.0525C183.768 45.3623 183.74 45.6177 183.712 45.8187C183.686 46.0092 183.661 46.1674 183.637 46.293C183.623 46.4208 183.607 46.5317 183.589 46.626L182.707 51.1977L181.011 50.8705Z" fill="black"/>
<path d="M173.382 49.1268C172.619 48.9248 171.949 48.5986 171.373 48.1482C170.808 47.7005 170.348 47.165 169.995 46.5418C169.654 45.9109 169.438 45.2249 169.348 44.4837C169.27 43.7349 169.338 42.9583 169.551 42.154C169.764 41.3498 170.088 40.6466 170.523 40.0446C170.971 39.4351 171.498 38.9456 172.104 38.5762C172.722 38.1993 173.388 37.9563 174.101 37.8471C174.824 37.7407 175.567 37.7885 176.33 37.9905C177.093 38.1926 177.758 38.5174 178.323 38.9651C178.899 39.4155 179.357 39.9561 179.698 40.587C180.049 41.2205 180.263 41.9117 180.341 42.6605C180.431 43.4018 180.371 44.1694 180.161 44.9633C179.951 45.7573 179.622 46.4591 179.174 47.0686C178.738 47.6706 178.211 48.1601 177.593 48.537C176.985 48.9167 176.319 49.1597 175.596 49.2662C174.883 49.3753 174.145 49.3288 173.382 49.1268ZM173.812 47.5028C174.338 47.642 174.843 47.671 175.328 47.5898C175.823 47.5112 176.277 47.339 176.69 47.073C177.105 46.7968 177.463 46.4447 177.764 46.0168C178.078 45.5813 178.31 45.08 178.46 44.5129C178.61 43.9457 178.655 43.4004 178.595 42.877C178.548 42.3459 178.411 41.8628 178.184 41.4276C177.96 40.982 177.652 40.6026 177.261 40.2893C176.88 39.9787 176.426 39.7538 175.9 39.6146C175.374 39.4754 174.864 39.445 174.369 39.5235C173.884 39.6048 173.43 39.777 173.007 40.0402C172.595 40.3062 172.237 40.6583 171.933 41.0965C171.632 41.5244 171.405 42.0271 171.252 42.6045C171.102 43.1716 171.051 43.7207 171.097 44.2518C171.144 44.7828 171.281 45.2659 171.508 45.7012C171.745 46.1391 172.055 46.5134 172.436 46.824C172.827 47.1373 173.286 47.3635 173.812 47.5028Z" fill="black"/>
<path d="M161.427 45.4414L161.92 43.9194L163.64 44.4773L166.109 36.8676L164.389 36.3098L164.882 34.7878L169.966 36.4367L169.472 37.9587L167.752 37.4008L165.284 45.0105L167.004 45.5683L166.51 47.0903L161.427 45.4414Z" fill="black"/>
<path d="M155.171 43.121L158.564 34.2093L155.633 33.0933L156.226 31.5382L163.792 34.4193L163.199 35.9743L160.179 34.8242L156.786 43.736L155.171 43.121Z" fill="black"/>
<path d="M146.267 39.4843C145.478 39.1328 144.847 38.6477 144.375 38.029C143.908 37.4005 143.628 36.7039 143.537 35.9392C143.459 35.1691 143.592 34.3992 143.935 33.6294L146.747 27.3151L148.325 28.018L145.572 34.2007C145.351 34.6977 145.268 35.198 145.324 35.7017C145.384 36.1956 145.552 36.6441 145.828 37.0471C146.114 37.4546 146.486 37.7602 146.944 37.9642C147.431 38.1811 147.922 38.2594 148.415 38.1991C148.919 38.1431 149.375 37.9723 149.782 37.6867C150.194 37.3913 150.51 36.9951 150.732 36.4982L153.485 30.3154L154.99 30.9858L152.179 37.3001C151.836 38.0699 151.347 38.6815 150.714 39.1348C150.094 39.5828 149.394 39.8433 148.614 39.9164C147.839 39.9798 147.056 39.8357 146.267 39.4843Z" fill="black"/>
<path d="M133.876 33.8354L138.464 23.6182L140.04 24.3261L136.134 33.0253L140.922 35.175L140.24 36.693L133.876 33.8354Z" fill="black"/>
<path d="M126.614 30.9158C125.886 30.61 125.268 30.1941 124.76 29.6683C124.262 29.1465 123.881 28.5526 123.617 27.8863C123.367 27.2144 123.249 26.5051 123.262 25.7585C123.289 25.0061 123.463 24.2465 123.786 23.4794C124.108 22.7124 124.527 22.061 125.041 21.5251C125.569 20.9835 126.159 20.5718 126.81 20.2899C127.474 20.0022 128.167 19.8538 128.889 19.8445C129.62 19.8393 130.349 19.9897 131.077 20.2955C131.804 20.6013 132.417 21.015 132.915 21.5368C133.423 22.0626 133.802 22.6615 134.052 23.3335C134.312 24.0095 134.428 24.7237 134.401 25.4761C134.388 26.2227 134.223 26.9746 133.905 27.7318C133.586 28.489 133.163 29.1384 132.635 29.6799C132.12 30.2158 131.531 30.6276 130.866 30.9152C130.211 31.2069 129.518 31.3554 128.787 31.3605C128.066 31.3698 127.341 31.2216 126.614 30.9158ZM127.265 29.367C127.766 29.5777 128.263 29.6765 128.754 29.6632C129.255 29.6541 129.729 29.5464 130.174 29.3401C130.624 29.1241 131.027 28.825 131.384 28.4429C131.755 28.0551 132.055 27.5908 132.282 27.0499C132.509 26.5091 132.63 25.9753 132.643 25.4486C132.67 24.9161 132.601 24.4187 132.437 23.9562C132.277 23.484 132.024 23.0655 131.68 22.701C131.345 22.3406 130.927 22.055 130.426 21.8443C129.924 21.6335 129.423 21.5327 128.922 21.5418C128.43 21.5551 127.957 21.6628 127.502 21.8649C127.056 22.0711 126.653 22.3702 126.291 22.7621C125.934 23.1442 125.64 23.6106 125.408 24.1613C125.181 24.7021 125.054 25.2388 125.027 25.7712C125 26.3037 125.068 26.8011 125.233 27.2635C125.407 27.7301 125.661 28.1436 125.996 28.504C126.34 28.8686 126.763 29.1562 127.265 29.367Z" fill="black"/>
<path d="M116.218 26.723C115.65 26.5059 115.151 26.2293 114.72 25.8932C114.299 25.561 113.946 25.1692 113.662 24.7179C113.391 24.2605 113.187 23.7486 113.05 23.1822L114.641 22.3346C114.863 23.2187 115.146 23.8809 115.492 24.3213C115.837 24.7617 116.319 25.1 116.937 25.3362C117.315 25.4809 117.682 25.5525 118.037 25.551C118.391 25.5495 118.698 25.4784 118.957 25.3378C119.217 25.1971 119.398 24.9922 119.501 24.7232C119.569 24.5439 119.604 24.3631 119.605 24.1808C119.606 23.9985 119.567 23.8179 119.487 23.6389C119.417 23.4636 119.303 23.2831 119.146 23.0973C118.998 22.9154 118.81 22.735 118.582 22.5563C118.357 22.3676 118.087 22.1786 117.771 21.9893C117.275 21.6741 116.862 21.3506 116.532 21.0189C116.202 20.6872 115.954 20.3354 115.787 19.9636C115.621 19.5917 115.538 19.2117 115.538 18.8234C115.542 18.4252 115.626 18.0118 115.789 17.5834C115.949 17.1649 116.188 16.8106 116.504 16.5205C116.831 16.2342 117.203 16.0224 117.621 15.8853C118.052 15.7419 118.514 15.6843 119.006 15.7124C119.501 15.7305 120.003 15.8367 120.511 16.031C121.049 16.2366 121.516 16.4949 121.911 16.8058C122.306 17.1167 122.624 17.4783 122.866 17.8906C123.112 18.2929 123.274 18.7371 123.35 19.2232L121.786 19.9099C121.712 19.505 121.593 19.1453 121.428 18.8309C121.266 18.5065 121.057 18.2324 120.8 18.0085C120.547 17.7747 120.251 17.593 119.912 17.4635C119.523 17.315 119.162 17.2453 118.827 17.2544C118.493 17.2635 118.199 17.3453 117.945 17.4997C117.706 17.648 117.531 17.8666 117.421 18.1556C117.341 18.3648 117.306 18.5743 117.317 18.7841C117.332 18.984 117.393 19.1841 117.499 19.3846C117.619 19.5788 117.797 19.7841 118.034 20.0003C118.275 20.2066 118.575 20.4239 118.933 20.6521C119.435 20.9812 119.864 21.3222 120.22 21.6753C120.58 22.0184 120.862 22.3717 121.066 22.735C121.269 23.0984 121.387 23.463 121.418 23.829C121.46 24.1988 121.412 24.5631 121.275 24.9218C121.02 25.5893 120.644 26.1082 120.149 26.4783C119.653 26.8485 119.07 27.0595 118.399 27.1114C117.732 27.1534 117.005 27.0239 116.218 26.723Z" fill="black"/>
<path d="M98.5068 20.3534L101.991 9.70911L106.431 11.1624C107.11 11.3847 107.65 11.6736 108.05 12.029C108.45 12.3843 108.7 12.8029 108.8 13.2848C108.914 13.7597 108.877 14.2862 108.688 14.864C108.498 15.4418 108.175 15.8804 107.718 16.1797C107.271 16.4824 106.739 16.6168 106.121 16.5831L106.221 16.2789C106.664 16.5363 107.02 16.8548 107.289 17.2345C107.561 17.6041 107.73 18.013 107.796 18.4612C107.873 18.9128 107.83 19.387 107.667 19.8837C107.502 20.3906 107.273 20.8152 106.981 21.1574C106.703 21.4929 106.364 21.741 105.963 21.9017C105.573 22.0657 105.136 22.1474 104.654 22.1466C104.175 22.1357 103.657 22.039 103.099 21.8565L98.5068 20.3534ZM100.667 19.3095L103.525 20.2452C103.941 20.3813 104.311 20.4349 104.634 20.4062C104.968 20.3807 105.249 20.2763 105.478 20.0929C105.72 19.9027 105.895 19.6404 106.005 19.3058C106.108 18.9916 106.109 18.6947 106.01 18.4153C105.921 18.1392 105.742 17.8956 105.475 17.6845C105.21 17.4633 104.87 17.2847 104.455 17.1487L101.672 16.2379L100.667 19.3095ZM102.19 14.6564L104.896 15.5424C105.201 15.6419 105.489 15.669 105.762 15.6237C106.045 15.5817 106.287 15.4758 106.489 15.306C106.701 15.1396 106.851 14.9195 106.941 14.6458C107.09 14.1896 107.052 13.7901 106.828 13.4473C106.603 13.1044 106.207 12.8401 105.64 12.6543L103.115 11.8281L102.19 14.6564Z" fill="black"/>
<path d="M89.0687 17.6211L92.1127 6.84271L98.9031 8.76039L98.4508 10.3618L93.3234 8.91371L91.1839 16.4894L96.3114 17.9375L95.8591 19.5388L89.0687 17.6211ZM91.1582 13.1071L91.6104 11.5057L96.7995 12.9712L96.3472 14.5725L91.1582 13.1071Z" fill="black"/>
<path d="M75.8457 14.688L74.7007 2.98926L76.4999 3.37433L77.1455 10.6792C77.1723 10.8595 77.1873 11.0699 77.1903 11.3106C77.1956 11.5408 77.1946 11.7751 77.1872 12.0135C77.1798 12.2519 77.1705 12.4735 77.1594 12.6784C77.1587 12.8855 77.1606 13.055 77.1651 13.1868L76.7147 13.0741C76.9895 12.5547 77.201 12.1528 77.3492 11.8681C77.5078 11.5858 77.6299 11.3719 77.7155 11.2266C77.8034 11.0709 77.8805 10.9401 77.9468 10.8343L80.9762 6.31219L82.4939 6.63699L83.3445 11.9895C83.3952 12.2622 83.4303 12.5315 83.4498 12.7975C83.4819 13.0552 83.5024 13.316 83.5114 13.5797C83.5227 13.833 83.5358 14.103 83.5508 14.3899L83.1205 14.4123C83.2329 14.1419 83.3163 13.9306 83.3707 13.7786C83.4377 13.6184 83.4928 13.4884 83.536 13.3886C83.5791 13.2887 83.6212 13.1941 83.6622 13.1047C83.7054 13.0049 83.7645 12.8812 83.8398 12.7337C83.9254 12.5884 84.039 12.3891 84.1804 12.1357L87.7179 5.77519L89.5328 6.16361L83.6999 16.3689L82.5265 16.1178L81.0986 8.64547L81.2261 8.73819L76.9879 14.9324L75.8457 14.688Z" fill="black"/>
<path d="M55.3337 12.2194L56.2223 1.05475L57.9129 1.1893L61.4533 8.13206L60.6411 8.05137L65.2816 1.77574L66.8766 1.90268L65.9881 13.0674L64.2655 12.9303L64.6298 8.35276C64.706 7.39579 64.7958 6.5362 64.8992 5.77401C65.0133 5.01266 65.1589 4.25917 65.3359 3.51353L65.5123 4.12143L61.4105 9.4769L60.3578 9.39312L57.2613 3.52898L57.4888 2.88901C57.549 3.61073 57.5704 4.35076 57.5528 5.10909C57.5468 5.85763 57.5027 6.74761 57.4206 7.77901L57.0563 12.3565L55.3337 12.2194Z" fill="black"/>
<path d="M47.5328 12.5129C46.7441 12.5455 46.0081 12.4318 45.3248 12.1718C44.6522 11.9113 44.0548 11.5357 43.5328 11.0448C43.0209 10.5428 42.6122 9.95122 42.3065 9.26993C42.0109 8.57753 41.846 7.81569 41.8117 6.9844C41.7773 6.15311 41.8791 5.38559 42.1169 4.68184C42.3649 3.96699 42.7235 3.34366 43.1926 2.81184C43.6719 2.26892 44.236 1.83993 44.8849 1.52488C45.5444 1.20938 46.2685 1.03534 47.0572 1.00275C47.8459 0.970164 48.5765 1.0841 49.2492 1.34455C49.9325 1.60456 50.5301 1.98555 51.0419 2.48751C51.5644 2.98904 51.9734 3.586 52.2689 4.27839C52.5746 4.95968 52.7444 5.71064 52.7783 6.53128C52.8122 7.35191 52.7052 8.11965 52.4571 8.8345C52.2193 9.53825 51.8607 10.1616 51.3814 10.7045C50.9127 11.247 50.3486 11.676 49.6891 11.9915C49.0402 12.3065 48.3214 12.4803 47.5328 12.5129ZM47.4634 10.8344C48.007 10.8119 48.4984 10.6902 48.9376 10.4692C49.3875 10.2478 49.7702 9.94904 50.0856 9.57303C50.4006 9.18637 50.6385 8.74417 50.7994 8.24643C50.9706 7.7376 51.044 7.1901 51.0198 6.60394C50.9956 6.01777 50.8774 5.48352 50.6654 5.0012C50.4635 4.50778 50.1899 4.08672 49.8445 3.73801C49.4987 3.37865 49.0925 3.10719 48.6258 2.92363C48.1699 2.73963 47.6701 2.65886 47.1266 2.68132C46.583 2.70378 46.0863 2.82572 45.6364 3.04715C45.1971 3.26814 44.8145 3.56686 44.4884 3.9433C44.173 4.31931 43.9351 4.76151 43.7746 5.26991C43.6136 5.76764 43.5455 6.31492 43.5702 6.91174C43.5944 7.49791 43.7074 8.0377 43.9093 8.53112C44.1112 9.02454 44.3848 9.44561 44.7302 9.79431C45.0862 10.1426 45.4922 10.4087 45.9482 10.5927C46.4148 10.7763 46.9199 10.8568 47.4634 10.8344Z" fill="black"/>
<path d="M36.3029 13.3951L34.8184 3.97532L31.7206 4.46353L31.4615 2.81981L39.4588 1.55945L39.7179 3.20316L36.5253 3.70631L38.0098 13.126L36.3029 13.3951Z" fill="black"/>
<path d="M27.9194 15.445C27.3334 15.6071 26.7672 15.6806 26.2208 15.6657C25.6846 15.6479 25.1683 15.5417 24.6718 15.347C24.1827 15.1391 23.7149 14.8479 23.2682 14.4734L24.047 12.8471C24.7497 13.4274 25.3708 13.7925 25.9102 13.9421C26.4496 14.0918 27.038 14.0785 27.6754 13.9022C28.0661 13.7942 28.4037 13.6345 28.6883 13.423C28.9729 13.2115 29.1779 12.9722 29.3032 12.7051C29.4286 12.4381 29.4529 12.1657 29.3761 11.8881C29.325 11.7031 29.2458 11.5368 29.1386 11.3894C29.0315 11.242 28.8926 11.1199 28.722 11.0232C28.5617 10.9237 28.363 10.8458 28.1262 10.7895C27.8996 10.7305 27.6412 10.6968 27.3512 10.6884C27.0583 10.6698 26.7285 10.678 26.3619 10.7129C25.7755 10.7534 25.2511 10.7379 24.7887 10.6665C24.3263 10.5952 23.9179 10.4591 23.5636 10.2583C23.2092 10.0574 22.9169 9.80073 22.6866 9.48814C22.4535 9.16526 22.2758 8.78279 22.1535 8.34071C22.0341 7.90891 22.0158 7.48237 22.0985 7.06109C22.1915 6.63697 22.3655 6.24577 22.6206 5.8875C22.8831 5.5161 23.2207 5.1959 23.6332 4.92689C24.043 4.6476 24.51 4.43546 25.0343 4.29048C25.5895 4.13698 26.1183 4.06823 26.6207 4.08424C27.1232 4.10025 27.5941 4.20244 28.0335 4.39081C28.4701 4.5689 28.8635 4.83087 29.2136 5.17672L28.3614 6.65739C28.062 6.37498 27.7525 6.15621 27.4329 6.0011C27.1105 5.83571 26.7795 5.73911 26.4398 5.7113C26.0973 5.67321 25.7512 5.70249 25.4017 5.79915C25.0007 5.91001 24.6682 6.06835 24.4042 6.27416C24.1401 6.47997 23.952 6.72013 23.8398 6.99463C23.735 7.25601 23.7238 7.53578 23.8062 7.83392C23.8659 8.04982 23.9625 8.23893 24.0959 8.40124C24.2265 8.55328 24.3939 8.67852 24.5982 8.77697C24.8099 8.86229 25.0754 8.9217 25.3945 8.9552C25.7108 8.97841 26.0808 8.97571 26.5045 8.94709C27.104 8.91411 27.6519 8.93417 28.148 9.00727C28.6412 9.07009 29.0776 9.18737 29.4571 9.35911C29.8366 9.53085 30.1475 9.75475 30.3898 10.0308C30.6424 10.304 30.8199 10.6257 30.9223 10.9958C31.1127 11.6846 31.1182 12.325 30.9388 12.9169C30.7594 13.5088 30.4151 14.0245 29.9058 14.4641C29.3937 14.8935 28.7316 15.2204 27.9194 15.445Z" fill="black"/>
<path d="M17.7555 18.9372C16.9582 19.27 16.1726 19.3956 15.3988 19.314C14.6209 19.2226 13.9225 18.9478 13.3036 18.4895C12.6903 18.0173 12.2214 17.3924 11.8968 16.6147L9.23438 10.2361L10.829 9.57045L13.436 15.8162C13.6456 16.3182 13.9527 16.7217 14.3574 17.0267C14.758 17.3218 15.1996 17.5074 15.6821 17.5834C16.1744 17.6553 16.6519 17.5947 17.1146 17.4016C17.6067 17.1961 18.0004 16.8931 18.2955 16.4925C18.6005 16.0878 18.789 15.6393 18.8608 15.1469C18.9286 14.6448 18.8578 14.1426 18.6482 13.6406L16.0412 7.39487L17.562 6.76007L20.2245 13.1387C20.5491 13.9163 20.6587 14.6913 20.5534 15.4634C20.4537 16.2216 20.1629 16.9094 19.6808 17.5267C19.1946 18.1342 18.5529 18.6044 17.7555 18.9372Z" fill="black"/>
<path d="M8.15019 23.5156C7.46422 23.884 6.76901 24.1001 6.06457 24.1636C5.36013 24.2272 4.67534 24.147 4.0102 23.9231C3.34002 23.6898 2.72091 23.3261 2.15286 22.8321C1.5942 22.333 1.11551 21.7123 0.716766 20.97C0.338214 20.2652 0.109582 19.5465 0.0308699 18.8139C-0.0434923 18.0668 0.0164933 17.3444 0.210827 16.6467C0.405161 15.9491 0.725493 15.3169 1.17182 14.7503C1.61815 14.1836 2.17961 13.7186 2.85618 13.3552C3.33543 13.0977 3.84095 12.9231 4.37276 12.8312C4.90892 12.7248 5.4309 12.7047 5.93871 12.771C6.45086 12.8228 6.91273 12.9501 7.32431 13.1528L6.87727 14.7551C6.45839 14.6289 6.06004 14.5523 5.68224 14.5252C5.30878 14.4836 4.95116 14.4941 4.60938 14.5566C4.277 14.614 3.96516 14.721 3.67386 14.8775C3.21341 15.1248 2.8291 15.4462 2.52093 15.8418C2.21711 16.2229 1.99814 16.6493 1.864 17.1209C1.73926 17.5875 1.7084 18.0823 1.77144 18.6054C1.82943 19.1192 1.9947 19.6297 2.26726 20.1372C2.55496 20.6728 2.89729 21.1185 3.29427 21.4744C3.69559 21.8158 4.12988 22.0608 4.59715 22.2094C5.06441 22.3579 5.5502 22.4058 6.05452 22.3528C6.56318 22.2854 7.07123 22.1155 7.57867 21.8429C7.88876 21.6763 8.17145 21.47 8.42673 21.2239C8.682 20.9778 8.89829 20.7043 9.0756 20.4032C9.25291 20.1021 9.39158 19.7855 9.49162 19.4533L10.919 20.2848C10.8392 20.6546 10.6668 21.0438 10.402 21.4525C10.1466 21.856 9.82142 22.2426 9.42659 22.612C9.03611 22.9671 8.61064 23.2683 8.15019 23.5156Z" fill="black"/>
<path d="M371.675 0.199529C373.298 -0.404631 374.672 0.397604 375.008 2.14075C375.181 3.06185 375.114 3.99286 374.874 4.88424C373.894 8.52901 371.915 11.4904 368.976 13.7486C367.983 14.5151 367.075 14.7012 366.147 14.322L366.098 14.3381C361.541 11.6828 354.645 5.19781 359.164 1.8677C363.361 -1.22439 365.882 3.91148 366.854 7.28522C367.082 6.61018 367.283 5.97727 367.536 5.35964C368.275 3.57688 369.217 1.94268 370.734 0.734356C371.022 0.50656 371.339 0.328284 371.675 0.199529Z" fill="black"/>
</svg>
