<svg width="50" height="23" viewBox="0 0 50 23" fill="none" xmlns="http://www.w3.org/2000/svg">
<path d="M25.1342 22.9937C18.5573 22.8014 12.3576 21.2508 6.69622 17.8315C5.00683 16.8109 3.25457 15.8137 1.80091 14.5065C-0.587813 12.3592 -0.603528 11.5034 1.77341 9.48952C5.30542 6.50602 8.84136 3.44402 13.3045 1.87376C17.638 0.350608 22.0383 -0.422746 26.7214 0.236763C30.8899 0.821685 35.137 1.15144 38.8222 3.23988C42.4288 5.28122 45.788 7.78578 49.1393 10.2472C50.5615 11.2953 50.1215 13.2974 48.5499 14.2553C47.3988 14.9579 46.2398 15.6763 45.1869 16.5164C40.103 20.5755 34.0565 21.926 27.8215 22.7857C27.3736 22.8485 26.9336 22.9506 26.4857 22.982C26.0378 23.0173 25.586 22.9898 25.1381 22.9898L25.1342 22.9937ZM23.1108 5.6306C19.1702 5.56779 16.5929 7.58165 16.4672 10.6162C16.3022 14.5183 19.4845 17.5999 22.3211 17.7452C26.7018 17.9689 29.782 15.4644 29.8684 11.8763C29.9706 7.77401 27.7311 5.70519 23.1108 5.6306Z" fill="#F97503"/>
<path d="M24.9888 9.68197C24.0262 10.7851 23.4958 11.9196 22.7611 12.0727C22.1836 12.1944 20.8832 11.2012 20.7457 10.526C20.5217 9.43073 21.2996 8.34725 22.6276 8.42577C23.2915 8.46502 23.9201 9.08527 24.9927 9.67805L24.9888 9.68197Z" fill="#F97503"/>
</svg>
