<svg width="50" height="52" viewBox="0 0 50 52" fill="none" xmlns="http://www.w3.org/2000/svg">
<path d="M25.4198 3.24439C25.5154 0.113219 26.185 -0.397999 28.9906 0.241015C39.3202 2.60538 48.3427 12.4782 49.7773 22.926C51.5308 35.8022 42.7315 48.5825 30.2977 51.2663C23.762 52.6722 23.7939 52.6722 24.1764 45.6111C24.2853 43.5857 24.3485 41.5451 24.3996 39.5005C22.5302 42.4562 19.9827 44.9734 16.8617 46.7229C11.6947 49.6146 11.7216 49.6063 10.2197 43.5226C9.33464 39.9444 8.27113 36.3618 7.29686 32.7814L3.08249 16.8396C2.03774 13.2217 1.13735 10.2702 0.31784 7.29379C-0.410793 4.61529 0.0235911 4.00791 2.56288 3.81963C11.3227 3.17955 20.8152 8.42041 25.2001 16.0563L25.2604 14.4591C25.3241 10.2097 25.3241 6.72701 25.4198 3.24439Z" fill="#FCCA59"/>
</svg>
