<svg viewBox="0 0 1200 628" xmlns="http://www.w3.org/2000/svg" font-family="Georgia, serif">
  <!-- PATTERN A: Bold Title on Color Field. Swap TITLE, colors (approved pairing), and the spot illustration. -->
  <rect width="1200" height="628" fill="#2D1B42"/>

  <!-- Flourish cluster (warm colorway), upper left, layered organic blobs -->
  <g opacity="0.9">
    <path d="M60 120 C40 60, 140 30, 190 70 C240 110, 200 180, 130 175 C80 172, 75 160, 60 120 Z" fill="#FF4B1A" opacity="0.85"/>
    <path d="M150 60 C160 20, 250 25, 265 75 C278 120, 215 145, 180 120 C150 100, 143 88, 150 60 Z" fill="#FF800B" opacity="0.9"/>
    <path d="M230 120 C260 95, 320 115, 312 160 C305 198, 245 200, 228 168 C218 148, 215 133, 230 120 Z" fill="#FFD454" opacity="0.85"/>
  </g>

  <!-- Spot illustration: circus tent, right side (curved peak, striped texture) -->
  <g transform="translate(930,360)">
    <path d="M0 180 C10 120, 30 90, 110 78 C190 90, 210 120, 220 180 Z" fill="#FF4B1A"/>
    <path d="M40 180 C48 130, 70 100, 110 92 C110 92, 105 180, 105 180 Z" fill="#FFD454"/>
    <path d="M150 180 C150 180, 148 105, 110 92 C155 98, 175 132, 180 180 Z" fill="#FFD454"/>
    <path d="M110 78 C108 55, 106 40, 104 28" stroke="#FFD454" stroke-width="5" fill="none" stroke-linecap="round"/>
    <path d="M104 28 C120 18, 138 22, 148 30 C132 34, 118 34, 104 40 Z" fill="#276DF0"/>
    <ellipse cx="110" cy="184" rx="130" ry="10" fill="#9E005D" opacity="0.5"/>
    <!-- squiggle texture on tent base -->
    <path d="M30 165 q10 -8 20 0 q10 8 20 0 q10 -8 20 0 q10 8 20 0 q10 -8 20 0 q10 8 20 0" stroke="#FFFFFF" stroke-width="3" fill="none" opacity="0.5"/>
  </g>

  <!-- Star accents (polygons render everywhere; avoid ★ text glyphs) -->
  <path d="M1060 120 l7 16 17 2 -12 12 3 17 -15 -8 -15 8 3 -17 -12 -12 17 -2 Z" fill="#FFD454"/>
  <path d="M985 195 l5 11 12 1.5 -8.5 8.5 2 12 -10.5 -5.5 -10.5 5.5 2 -12 -8.5 -8.5 12 -1.5 Z" fill="#FF800B"/>

  <!-- TITLE: Humoresque treatment (heavy slab, all caps). Replace text; keep 3-7 words. -->
  <text x="90" y="330" font-size="76" font-weight="900" letter-spacing="2" fill="#FFFFFF">YOUR BOLD TITLE</text>
  <text x="90" y="420" font-size="76" font-weight="900" letter-spacing="2" fill="#FF800B">GOES RIGHT HERE</text>

  <!-- Eyebrow label (Hanken Grotesk role) -->
  <text x="92" y="240" font-size="24" font-family="Arial, sans-serif" font-weight="700" letter-spacing="4" fill="#A3F7F7">4SITE BLOG</text>

  <!-- Logo, bottom-left corner: real white logo for dark backgrounds -->
  <g transform="translate(90,522) scale(0.42)"><!-- real 4Site logo (assets/logo/logo-white.svg) -->
<path d="M30.143 52.5553C27.8554 29.4906 45.1265 8.56022 69.2199 5.51356C80.3044 4.11191 90.9326 6.73578 99.5215 12.2085C87.1218 3.0059 71.0245 -1.61878 54.1612 0.513608C20.4019 4.78254 -3.64322 34.5158 0.454956 66.9248C1.10519 72.0669 2.42484 76.9675 4.31997 81.5566L30.143 52.5553Z" fill="white"/>
<path d="M116.55 107.784C100.33 107.784 86.3714 97.7777 87.0596 80.7764H104.066C103.869 87.8684 108.883 93.3088 117.435 93.3088C124.218 93.3088 129.33 90.2971 129.133 84.371C128.642 72.3243 97.0864 78.7363 96.0051 56.8774C95.317 41.2363 108.686 32.7842 125.103 32.7842C140.733 32.7842 154.79 42.5964 154.004 56.7803H136.899C136.407 51.3399 131.296 46.7738 123.235 46.7738C116.649 46.7738 112.717 49.5912 112.815 54.1572C113.306 65.2324 145.353 57.7518 146.336 80.9707C147.024 97.1948 134.048 107.784 116.55 107.784Z" fill="white"/>
<path d="M180.299 49.5564L162.107 105.153H146.898L165.091 49.5564H180.299ZM166.438 34.7946C166.438 29.5226 170.385 25.7842 175.872 25.7842C181.454 25.7842 185.401 29.5226 185.401 34.7946C185.401 40.0667 181.454 43.8051 175.872 43.8051C170.385 43.8051 166.438 40.0667 166.438 34.7946Z" fill="white"/>
<path d="M192.424 105.153C182.895 105.153 178.082 97.7717 181.354 87.8986L189.536 62.7844H181.488L185.82 49.5563H193.868L197.525 38.3412L214.659 32.3022L208.98 49.5563H220.916L216.584 62.7844H204.648L196.467 87.8986C195.793 90.3908 196.755 91.9245 199.162 91.9245H208.691L202.723 105.153H192.424Z" fill="white"/>
<path d="M240.042 106.303C223.101 106.303 211.261 92.8833 216.074 73.137C219.443 58.9504 232.149 48.4062 245.914 48.4062C265.357 48.4062 273.828 64.1266 266.32 79.8469H229.165C228.78 87.5154 233.689 92.9792 241.101 92.9792C246.299 92.9792 250.726 90.2952 251.689 86.8444H266.224C262.277 99.6891 252.267 106.303 240.042 106.303ZM231.668 70.0697H254.192C255.539 64.3183 251.015 60.6758 244.951 60.6758C238.983 60.6758 234.267 64.51 231.668 70.0697Z" fill="white"/>
<path d="M20.187 76.2011L14.0352 96.0915H49.7187L44.8428 110H60.9617L65.8375 96.0915H77.872L83.0352 79.4204H71.6818L77.3321 63.3027H61.2135L55.5631 79.4204H40.2032L86.9818 26.3027H64.6587L20.187 76.2011Z" fill="white"/>
</g>
</svg>
